<svg id="Layer_1" xmlns="http://www.w3.org/2000/svg" width="146.2" height="74.1" viewBox="0 0 146.2 74.1"><style>.st0{fill:#e57e25}</style><path class="st0" d="M89.4 60.3c3.2 2.2 5.1 4.5 6.4 4.2 1.8-.4 4-2.6 4.4-4.4.3-1.1-2.5-4-4-4.1-1.7 0-3.5 2.2-6.8 4.3zm14.9-48.7c3.7-4.1 11.2-4.8 17.5-4.4 11.6.7 18.1 5.5 20.4 14.8-1.3.9-2.7 1.8-4.4 2.9-6.8-9.9-14.6-13.5-23.2-10.1-2.7 1.1-6.4 4.1-6.6 6.5l.2 1.3c1 11.7 1 23.6.5 35.4-.3 8.4-7.1 12.9-14.9 10.9-5.7-1.4-8.8-5.3-8.4-10.7.3-5.2 4.1-8.9 9.8-9.6 1-.1 2-.1 2.9-.2 0-9.2.5-18.2-.3-27.2-.2-2.4-3.9-5.5-6.6-6.5-8.6-3.4-16.4.2-23.2 10.1-1.7-1.1-3-2-4.4-2.9 2.4-9.2 8.9-14 20.5-14.7 6.2-.4 15.4 1.4 17.5 4.4.8 1.1 1.7 1.1 2.7 0z"/><path class="st0" d="M40.9 64.4c.6 1.6 2.5 2.8 3.8 4.2 1.2-1.4 3.1-2.7 3.7-4.3C51.8 54 55 43.7 59 33.6v34.7h9.5V8.4H58.3C53.9 22.2 49.4 36.2 45 50.2c-.3 0-.6.1-1 .1a562 562 0 0 1-3.8-12.1c-2.6-8.1-5.5-16.1-7.6-24.3-1.2-4.7-3.4-6.7-8.2-5.9-1.1.2-2.3 0-3.9 0v40.2c-1.5.1-2.5.1-3.4.3-6.1.8-9.5 4-10 9.3-.5 4.6 2.2 9.2 6.4 10.8 5.4 2 12.2.4 14.6-4.3 1.4-2.7 2.2-5.9 2.3-9 .3-6.8.1-13.6.1-20.5.3-.1.6-.2.8-.2 3.1 10 6.2 19.9 9.6 29.8zm-23.7-9.9c1.6.2 4.2 2.7 4.1 4.1-.1 1.6-2.5 4-4.1 4.3-1.5.2-3.3-2.1-6.2-4.3 2.9-2 4.7-4.3 6.2-4.1z"/></svg>