<?xml version="1.0" encoding="utf-8"?>
<!-- Generator: Adobe Illustrator 16.0.0, SVG Export Plug-In . SVG Version: 6.00 Build 0)  -->
<!DOCTYPE svg PUBLIC "-//W3C//DTD SVG 1.1//EN" "http://www.w3.org/Graphics/SVG/1.1/DTD/svg11.dtd">
<svg version="1.1" id="Layer_1" xmlns="http://www.w3.org/2000/svg" xmlns:xlink="http://www.w3.org/1999/xlink" x="0px" y="0px"
	 width="146.2px" height="74.1px" viewBox="0 0 146.2 74.1" style="enable-background:new 0 0 146.2 74.1;" xml:space="preserve">
<style type="text/css">
<![CDATA[
	.st0{fill:#E57E25;}
]]>
</style>
<g>
	<path class="st0" d="M89.4,60.3c3.2,2.2,5.1,4.5,6.4,4.2c1.8-0.4,4-2.6,4.4-4.4c0.3-1.1-2.5-4-4-4.1C94.5,56,92.7,58.2,89.4,60.3z
		 M104.3,11.6c3.7-4.1,11.2-4.8,17.5-4.4c11.6,0.7,18.1,5.5,20.4,14.8c-1.3,0.9-2.7,1.8-4.4,2.9c-6.8-9.9-14.6-13.5-23.2-10.1
		c-2.7,1.1-6.4,4.1-6.6,6.5l0.2,1.3c1,11.7,1,23.6,0.5,35.4c-0.3,8.4-7.1,12.9-14.9,10.9c-5.7-1.4-8.8-5.3-8.4-10.7
		c0.3-5.2,4.1-8.9,9.8-9.6c1-0.1,2-0.1,2.9-0.2c0-9.2,0.5-18.2-0.3-27.2c-0.2-2.4-3.9-5.5-6.6-6.5c-8.6-3.4-16.4,0.2-23.2,10.1
		c-1.7-1.1-3-2-4.4-2.9C66,12.7,72.5,7.9,84.1,7.2c6.2-0.4,15.4,1.4,17.5,4.4C102.4,12.7,103.3,12.7,104.3,11.6z"/>
	<path class="st0" d="M40.9,64.4c0.6,1.6,2.5,2.8,3.8,4.2c1.2-1.4,3.1-2.7,3.7-4.3C51.8,54,55,43.7,59,33.6c0,11.4,0,22.9,0,34.7
		c3.2,0,6.1,0,9.5,0c0-19.9,0-39.7,0-59.9c-3.3,0-6.5,0-10.2,0c-4.4,13.8-8.9,27.8-13.3,41.8c-0.3,0-0.6,0.1-1,0.1
		c-1.3-4-2.6-8.1-3.8-12.1c-2.6-8.1-5.5-16.1-7.6-24.3c-1.2-4.7-3.4-6.7-8.2-5.9c-1.1,0.2-2.3,0-3.9,0c0,13.6,0,26.8,0,40.2
		c-1.5,0.1-2.5,0.1-3.4,0.3c-6.1,0.8-9.5,4-10,9.3c-0.5,4.6,2.2,9.2,6.4,10.8c5.4,2,12.2,0.4,14.6-4.3c1.4-2.7,2.2-5.9,2.3-9
		c0.3-6.8,0.1-13.6,0.1-20.5c0.3-0.1,0.6-0.2,0.8-0.2C34.4,44.6,37.5,54.5,40.9,64.4z M17.2,54.5c1.6,0.2,4.2,2.7,4.1,4.1
		c-0.1,1.6-2.5,4-4.1,4.3c-1.5,0.2-3.3-2.1-6.2-4.3C13.9,56.6,15.7,54.3,17.2,54.5z"/>
</g>
</svg>
